<?xml version="1.0" encoding="utf-8"?>
<!-- Generator: Adobe Illustrator 21.0.2, SVG Export Plug-In . SVG Version: 6.00 Build 0)  -->
<svg version="1.1" id="Capa_1" xmlns="http://www.w3.org/2000/svg" xmlns:xlink="http://www.w3.org/1999/xlink" x="0px" y="0px"
	 viewBox="0 0 487.8 550.8" style="enable-background:new 0 0 487.8 550.8;" xml:space="preserve">
<style type="text/css">
	.st0{fill:#B90D15;}
	.st1{fill:#247146;}
</style>
<path class="st1" d="M475.2,197h-31.5v-63.8c0-0.4-0.1-0.8-0.1-1.2c0-2.5-0.8-5-2.6-7L334.8,3.7c0,0-0.1,0-0.1-0.1
	c-0.6-0.7-1.4-1.3-2.2-1.8c-0.6-0.4-1.3-0.7-2.1-1.3c0,0,0,0,0,0c-0.6,0.1-0.9-0.1-1.3-0.2c-0.8-0.2-1.6-0.3-2.5-0.3H58.6
	c-8,0-14.5,6.5-14.5,14.5V197H9.3c-5.1,0-9.3,4.2-9.3,9.3V410c0,5.1,4.2,9.3,9.3,9.3h34.8v117c0,8,6.5,14.5,14.5,14.5h367.2
	c9.9,0,17.9-8,17.9-17.9V419.3h34.8c5.1,0,9.3-4.2,9.3-9.3V209.6C487.8,202.6,482.2,197,475.2,197z M64.7,20h251.2v122.9h108.2V197
	H64.7V20z M381.9,326.1c-3.8-2.3-9.8-4.3-18-6.1l-14-3.1c-13.8-3-23.3-6.4-28.4-9.9c-8.7-6-13.1-15.3-13.1-28
	c0-11.6,4.3-21.2,12.8-28.9c8.5-7.7,21.1-11.5,37.6-11.5c13.8,0,25.6,3.6,35.4,10.9c9.8,7.2,14.9,17.7,15.3,31.5h-26
	c-0.5-7.8-4-13.3-10.5-16.6c-4.3-2.2-9.7-3.3-16.1-3.3c-7.1,0-12.9,1.4-17.1,4.2s-6.4,6.7-6.4,11.8c0,4.6,2.1,8.1,6.3,10.4
	c2.7,1.5,8.4,3.3,17.2,5.4l22.7,5.4c10,2.3,17.4,5.5,22.4,9.4c7.7,6.1,11.6,14.9,11.6,26.5c0,11.8-4.6,21.7-13.7,29.5
	c-9.2,7.8-22.1,11.7-38.8,11.7c-17.1,0-30.5-3.9-40.2-11.6c-9.8-7.7-14.7-18.3-14.7-31.8h25.8c0.8,5.9,2.5,10.3,4.9,13.3
	c4.5,5.3,12.2,8,23.1,8c6.5,0,11.8-0.7,15.9-2.1c7.7-2.7,11.6-7.7,11.6-15C387.6,331.8,385.7,328.4,381.9,326.1z M294.4,348.6v23.3
	h-91.8V242.3h27.1v106.3H294.4z M73.8,242.3h32.3l23.1,42.2l23.7-42.2h31.3l-39.6,62.5l42.1,67.1h-32.9l-24.6-44.2l-26,44.2H71.8
	l41.7-66L73.8,242.3z M64.7,530.8V419.3h359.4l0,111.5H64.7z"/>
</svg>
