<?xml version="1.0" encoding="utf-8"?>
<!-- Generator: Adobe Illustrator 23.0.2, SVG Export Plug-In . SVG Version: 6.00 Build 0)  -->
<svg version="1.1" id="Layer_1" xmlns="http://www.w3.org/2000/svg" xmlns:xlink="http://www.w3.org/1999/xlink" x="0px" y="0px"
	 viewBox="0 0 32 32" style="enable-background:new 0 0 32 32;" xml:space="preserve">
<style type="text/css">
	.st0{fill:#9ACAC3;}
	.st1{fill:#D6EBC6;}
	.st2{fill:#BADBB5;}
	.st3{fill:#6FA0C8;}
	.st4{fill:#FF7C43;}
</style>
<g>
	<path class="st0" d="M19.3,9.1c-1.3,0-2.4,0.3-3.1,0.9c-0.6,0.5-0.8,1-1,1.5c-0.3,0.6-0.5,1.2-1.4,1.7c-0.5,0.3-0.9,0.4-1.2,0.5
		c0.3,2.6,0.9,4,1.9,4.4c0.7,0.2,1.3-0.2,2-0.6c0.7-0.5,1.5-1,2.6-1c0,0,0.1,0,0.2,0c1.4,0.1,2.3,1.1,3,2.1c0.8,0.9,1.5,1.7,2.4,1.6
		c0.6,0,0.9-0.3,1.2-0.7c0.4-0.4,0.8-0.8,1.7-1.1l0,0c0.1,0,0.1,0,0.1,0c0,0-0.1-0.1-0.1-0.1c-0.2-0.5,0.3-1,0.1-1.2
		c-0.2-0.2-0.7,0-1.3,0.1c-0.9,0.1-1.8-0.5-3.6-1.7c-0.9-0.6-1.3-1-1.3-1.4c0-0.3,0.3-0.4,0.2-0.7c-0.2-0.4-0.8-0.3-1.1-0.7
		c-0.4-0.5-0.2-1.2,0.1-1.7c0.5-0.6,1.2-0.8,1.2-0.9c-0.1-0.1-0.5,0.1-1.1,0c-0.5-0.1-0.7-0.4-1-0.6C19.6,9.2,19.5,9.2,19.3,9.1z"/>
	<path class="st1" d="M4.9,14C4.9,14,4.9,14,4.9,14c1.5,1.9,2.7,2.2,3.4,2.1C8.6,16,8.8,15.8,9,15.4c0.2-0.3,0.5-0.8,1.1-1.2
		c0.7-0.5,1.3-0.6,1.8-0.7c0.5-0.1,1-0.1,1.7-0.5c0.8-0.5,1-1,1.3-1.6c0.2-0.5,0.5-1.1,1.1-1.6c0.3-0.2,0.6-0.4,1-0.6
		c-0.5,0.1-1,0.1-1.4-0.2C15,8.6,15,8.1,14.4,7.9c-0.6-0.1-1,0.5-1.6,0.3c-0.5-0.1-0.4-0.5-0.9-0.6c-0.7-0.2-1.1,0.6-2,0.5
		c-0.4,0-0.4-0.2-0.7-0.2c-0.7,0.1-0.5,1.8-2,2.2c-0.8,0.5-1.9,0.1-2,0.4c0,0.2,0.3,0.3,0.3,0.6c0,0.3-0.3,0.4-0.6,0.9
		c-0.2,0.3-0.6,0.8-0.4,1.3C4.6,13.7,4.9,13.7,4.9,14z"/>
	<path class="st2" d="M14.7,21.7c0.5-0.5,1.1-0.7,1.6-1c0.4-0.2,0.9-0.4,1.4-0.8c0.5-0.3,0.7-1.4,0.7-3.1c-0.8,0.1-1.4,0.5-1.9,0.9
		c-0.7,0.5-1.4,0.9-2.2,0.6c-1.1-0.4-1.8-1.8-2.1-4.6c-0.1,0-0.2,0-0.3,0c-0.5,0.1-1.1,0.1-1.7,0.6c-0.6,0.4-0.8,0.8-1.1,1.2
		c-0.2,0.4-0.4,0.7-0.9,0.8c-0.1,0-0.2,0-0.3,0c-0.8,0-1.9-0.4-3.4-2.1c-0.1,0.1-0.3,0.2-0.5,0.3c-0.4,0.1-0.6,0-0.8,0.1
		c-0.2,0.1-0.1,0.4-0.2,0.9c-0.1,0.8-0.7,0.9-0.6,1.3c0.1,0.3,0.5,0.6,0.8,0.6c0.2,0,0.2-0.3,0.5-0.3c0.3,0,0.6,0.2,0.6,0.4
		S4.2,17.7,4,18c-0.4,0.5-0.1,1-0.4,1.2c-0.3,0.2-0.9-0.3-1-0.1c-0.2,0.2,0.3,0.6,0.5,1.3C3.2,21,3,21.3,3.3,21.7
		c0.1,0.2,0.3,0.3,0.6,0.5c0.4,0.3,1.6,0.9,2.8,0.5c0.9-0.3,1.1-1,1.7-0.9c0.4,0.1,0.8,0.6,0.7,0.8c-0.1,0.2-0.7,0.1-0.8,0.3
		c-0.2,0.4,0.7,1.3,1.6,1.3c0.9,0,1.2-0.9,1.9-0.8c0.5,0.1,0.5,0.4,1,0.5c0.4,0.1,0.7-0.1,0.9-0.3C13.9,22.7,14.4,22,14.7,21.7z"/>
	<path class="st3" d="M28.5,21.7c0.1-0.2,0.5,0,0.6-0.1c0.2-0.3-1.5-1.6-1.2-2.5c0-0.1,0.2-0.3,0.1-0.5c0-0.1,0-0.1-0.1-0.2
		c0,0-0.1,0-0.1,0c-0.1,0-0.2,0.1-0.3,0.1c-0.8,0.2-1.2,0.7-1.5,1c-0.4,0.4-0.7,0.7-1.4,0.8c-0.1,0-0.2,0-0.3,0
		c-1,0-1.7-0.8-2.4-1.7c-0.8-0.9-1.6-1.9-2.9-2c-0.1,0-0.2,0-0.4,0c0,1.1-0.1,2.9-0.9,3.4c-0.5,0.3-1,0.6-1.4,0.8
		c-0.6,0.3-1.1,0.5-1.6,1c-0.3,0.2-0.7,0.9-0.9,1.6c0.1,0,0.2,0,0.3,0c0.7,0.1,0.8,1.3,1.5,1.3c0.5,0.1,0.7-0.7,1.5-0.8
		c0.6,0,0.7,0.3,1.2,0.3c0.7,0,1.4-0.7,1.5-1.4c0.1-0.6-0.4-0.8-0.2-1.2c0.3-0.7,2.3-0.6,2.6,0c0.2,0.3-0.3,0.7-0.1,1.1
		c0.2,0.4,0.8,0.3,0.9,0.7c0.1,0.4-0.3,0.6-0.2,0.8c0.2,0.3,1.4-0.1,1.7,0.4c0.1,0.3,0,0.6-0.2,0.8s-0.4,0.1-0.5,0.2
		c-0.2,0.2,0.6,1,1.3,1c0.6-0.1,0.8-0.6,1.2-0.5c0.4,0.1,0.4,0.5,1,1.1c0.1,0,0.6,0.5,0.7,0.4c0.1-0.1-0.8-1.2-0.3-1.9
		c0.1-0.3,0.4-0.2,0.5-0.5c0.2-0.6-0.4-1-0.2-1.4c0.1-0.3,0.6-0.1,0.8-0.4C29.3,23,28.3,22,28.5,21.7z"/>
</g>
<rect x="9.2" y="5.4" class="st4" width="2" height="5.3"/>
<rect x="9.7" y="12.6" class="st4" width="2" height="6.9"/>
<rect x="18.5" y="10.6" class="st4" width="2" height="3.1"/>
<rect x="21.2" y="16.5" class="st4" width="2" height="3.8"/>
</svg>
