<?xml version="1.0" encoding="utf-8"?>
<!-- Generator: Adobe Illustrator 23.0.2, SVG Export Plug-In . SVG Version: 6.00 Build 0)  -->
<svg version="1.1" id="Layer_1" xmlns="http://www.w3.org/2000/svg" xmlns:xlink="http://www.w3.org/1999/xlink" x="0px" y="0px"
	 viewBox="0 0 32 32" style="enable-background:new 0 0 32 32;" xml:space="preserve">
<style type="text/css">
	.st0{fill:#FF7C43;}
	.st1{fill:#8B0000;}
</style>
<g>
	<rect x="2.4" y="4.5" class="st0" width="16.3" height="2"/>
	<rect x="18.7" y="4.5" class="st1" width="10.4" height="2"/>
	<rect x="2.4" y="7.5" class="st0" width="14" height="2"/>
	<rect x="16.4" y="7.5" class="st1" width="9" height="2"/>
	<rect x="2.4" y="10.5" class="st0" width="11.8" height="2"/>
	<rect x="14.2" y="10.5" class="st1" width="7.6" height="2"/>
	<rect x="2.4" y="13.5" class="st0" width="9.4" height="2"/>
	<rect x="11.8" y="13.5" class="st1" width="6" height="2"/>
	<rect x="2.4" y="16.5" class="st0" width="7.9" height="2"/>
	<rect x="10.3" y="16.5" class="st1" width="5" height="2"/>
	<rect x="2.4" y="19.5" class="st0" width="7.1" height="2"/>
	<rect x="9.5" y="19.5" class="st1" width="4.6" height="2"/>
	<rect x="2.4" y="25.5" class="st0" width="5.3" height="2"/>
	<rect x="7.7" y="25.5" class="st1" width="3.4" height="2"/>
	<rect x="2.4" y="22.5" class="st0" width="6.2" height="2"/>
	<rect x="8.6" y="22.5" class="st1" width="4" height="2"/>
</g>
</svg>
