<?xml version="1.0" encoding="utf-8"?>
<!-- Generator: Adobe Illustrator 23.0.1, SVG Export Plug-In . SVG Version: 6.00 Build 0)  -->
<svg version="1.1" id="Layer_1" xmlns="http://www.w3.org/2000/svg" xmlns:xlink="http://www.w3.org/1999/xlink" x="0px" y="0px"
	 viewBox="0 0 32 32" style="enable-background:new 0 0 32 32;" xml:space="preserve">
<style type="text/css">
	.st0{fill:#2597D3;}
	.st1{fill:none;stroke:#FFFFFF;stroke-width:0.25;stroke-miterlimit:10;}
	.st2{fill:none;stroke:#FF7C43;stroke-width:0.5;stroke-miterlimit:10;}
	.st3{fill:#FF7C43;}
</style>
<path class="st0" d="M28.2,27.7c-0.1,0.1-0.6-0.4-0.7-0.4c-0.6-0.6-0.6-1-1-1.1c-0.4-0.1-0.6,0.4-1.2,0.5c-0.7,0-1.5-0.8-1.3-1
	c0.1-0.1,0.3,0,0.5-0.2c0.2-0.2,0.3-0.5,0.2-0.8c-0.3-0.5-1.5-0.1-1.7-0.4c-0.1-0.2,0.3-0.4,0.2-0.8c-0.1-0.4-0.7-0.3-0.9-0.7
	c-0.2-0.4,0.3-0.8,0.1-1.1c-0.3-0.6-2.3-0.7-2.6,0c-0.2,0.4,0.3,0.6,0.2,1.2c-0.1,0.7-0.8,1.4-1.5,1.4c-0.5,0-0.6-0.3-1.2-0.3
	c-0.8,0.1-1,0.9-1.5,0.8c-0.7,0-0.8-1.2-1.5-1.3c-0.6-0.1-0.8,0.5-1.5,0.4c-0.5-0.1-0.5-0.4-1-0.5c-0.7-0.1-1,0.8-1.9,0.8
	c-0.9,0-1.8-0.9-1.6-1.3c0.1-0.2,0.7-0.1,0.8-0.3c0.1-0.2-0.3-0.7-0.7-0.8c-0.6-0.1-0.8,0.6-1.7,0.9c-1.2,0.4-2.4-0.2-2.8-0.5
	c-0.3-0.2-0.5-0.3-0.6-0.5c-0.3-0.4-0.1-0.7-0.2-1.3c-0.2-0.7-0.7-1.1-0.5-1.3c0.1-0.2,0.7,0.3,1,0.1c0.3-0.2,0-0.7,0.4-1.2
	c0.2-0.3,0.5-0.3,0.5-0.5c0-0.2-0.3-0.4-0.6-0.4c-0.3,0-0.3,0.3-0.5,0.3c-0.3,0-0.7-0.3-0.8-0.6c-0.1-0.4,0.5-0.5,0.6-1.3
	c0.1-0.5,0-0.8,0.2-0.9c0.2-0.1,0.4,0,0.8-0.1c0.3-0.1,0.6-0.3,0.7-0.5c0-0.3-0.3-0.3-0.4-0.7c-0.2-0.5,0.2-1,0.4-1.3
	c0.3-0.5,0.6-0.6,0.6-0.9c0-0.3-0.3-0.4-0.3-0.6c0.1-0.3,1.2,0.1,2-0.4C8.7,9.7,8.5,8,9.2,7.9c0.3,0,0.3,0.2,0.7,0.2
	c0.9,0.1,1.3-0.7,2-0.5c0.5,0.1,0.4,0.5,0.9,0.6c0.6,0.2,1-0.4,1.6-0.3C15,8.1,15,8.6,15.6,9c1.3,0.8,2.9-0.6,4.1,0.3
	c0.3,0.2,0.5,0.5,1,0.6c0.6,0.1,1-0.1,1.1,0c0,0.1-0.7,0.3-1.2,0.9c-0.3,0.5-0.5,1.2-0.1,1.7c0.3,0.4,0.9,0.3,1.1,0.7
	c0.1,0.3-0.2,0.4-0.2,0.7c0,0.4,0.4,0.8,1.3,1.4c1.8,1.2,2.7,1.8,3.6,1.7c0.6-0.1,1.1-0.3,1.3-0.1c0.2,0.2-0.3,0.7-0.1,1.2
	c0.2,0.3,0.5,0.3,0.5,0.5c0.1,0.2-0.1,0.4-0.1,0.5c-0.3,0.9,1.4,2.2,1.2,2.5c-0.1,0.1-0.5-0.1-0.6,0.1c-0.2,0.3,0.8,1.3,0.5,1.8
	c-0.2,0.3-0.7,0.1-0.8,0.4c-0.2,0.4,0.4,0.8,0.2,1.4c-0.1,0.3-0.4,0.2-0.5,0.5C27.4,26.5,28.3,27.6,28.2,27.7z"/>
<path class="st1" d="M4.9,14.1c1.7,2,2.7,2.2,3.4,2.1c0.8-0.2,0.7-1,1.9-1.9c1.3-1,2.1-0.3,3.5-1.2c1.5-0.9,1.1-2.1,2.4-3.2
	c0.7-0.6,2-1.2,4.5-0.8"/>
<path class="st1" d="M12.4,13.6c0.3,3.2,1.1,4.3,2,4.6c1.5,0.5,2.5-1.7,4.7-1.6c2.6,0.2,3.4,3.9,5.5,3.6c1.2-0.1,1.3-1.3,2.9-1.8
	c0.3-0.1,0.6-0.1,0.9-0.1"/>
<path class="st1" d="M13.8,24.6c-0.2-1.2,0.6-2.5,1-2.8c0.9-0.8,1.8-1,3-1.8c0.7-0.4,0.8-2.4,0.8-3.4"/>
<circle class="st2" cx="10.4" cy="9.4" r="4.1"/>
<circle class="st2" cx="9.6" cy="20.6" r="5.6"/>
<circle class="st2" cx="22.1" cy="20.6" r="1"/>
<circle class="st2" cx="20.4" cy="13.6" r="2.4"/>
</svg>
