<?xml version="1.0" encoding="utf-8"?>
<!-- Generator: Adobe Illustrator 23.0.2, SVG Export Plug-In . SVG Version: 6.00 Build 0)  -->
<svg version="1.1" id="Layer_1" xmlns="http://www.w3.org/2000/svg" xmlns:xlink="http://www.w3.org/1999/xlink" x="0px" y="0px"
	 viewBox="0 0 32 32" style="enable-background:new 0 0 32 32;" xml:space="preserve">
<style type="text/css">
	.st0{fill:#212121;}
</style>
<path class="st0" d="M26,12.6h-1.4V9.9c0,0,0,0,0-0.1c0-0.1,0-0.2-0.1-0.3l-4.6-5.2c0,0,0,0,0,0c0,0-0.1-0.1-0.1-0.1
	c0,0-0.1,0-0.1-0.1l0,0c0,0,0,0-0.1,0c0,0-0.1,0-0.1,0H8c-0.3,0-0.6,0.3-0.6,0.6v7.9H5.9c-0.2,0-0.4,0.2-0.4,0.4v8.8
	c0,0.2,0.2,0.4,0.4,0.4h1.5v5c0,0.3,0.3,0.6,0.6,0.6h15.8c0.4,0,0.8-0.3,0.8-0.8v-4.9h1.5c0.2,0,0.4-0.2,0.4-0.4v-8.6
	C26.5,12.9,26.3,12.6,26,12.6z M8.3,5h10.8v5.3h4.7v2.3H8.3V5z M22,18.2c-0.2-0.1-0.4-0.2-0.8-0.3l-0.6-0.1c-0.6-0.1-1-0.3-1.2-0.4
	c-0.4-0.3-0.6-0.7-0.6-1.2c0-0.5,0.2-0.9,0.6-1.2c0.4-0.3,0.9-0.5,1.6-0.5c0.6,0,1.1,0.2,1.5,0.5c0.4,0.3,0.6,0.8,0.7,1.4H22
	c0-0.3-0.2-0.6-0.5-0.7c-0.2-0.1-0.4-0.1-0.7-0.1c-0.3,0-0.6,0.1-0.7,0.2c-0.2,0.1-0.3,0.3-0.3,0.5c0,0.2,0.1,0.3,0.3,0.4
	c0.1,0.1,0.4,0.1,0.7,0.2l1,0.2c0.4,0.1,0.8,0.2,1,0.4c0.3,0.3,0.5,0.6,0.5,1.1c0,0.5-0.2,0.9-0.6,1.3c-0.4,0.3-1,0.5-1.7,0.5
	c-0.7,0-1.3-0.2-1.7-0.5c-0.4-0.3-0.6-0.8-0.6-1.4h1.1c0,0.3,0.1,0.4,0.2,0.6c0.2,0.2,0.5,0.3,1,0.3c0.3,0,0.5,0,0.7-0.1
	c0.3-0.1,0.5-0.3,0.5-0.6C22.2,18.4,22.1,18.3,22,18.2z M18.2,19.2v1h-4v-5.6h1.2v4.6H18.2z M8.7,14.6h1.4l1,1.8l1-1.8h1.4l-1.7,2.7
	l1.8,2.9h-1.4l-1.1-1.9l-1.1,1.9H8.6l1.8-2.8L8.7,14.6z M8.3,27v-4.8h15.5V27H8.3z"/>
</svg>
