<?xml version="1.0" encoding="utf-8"?>
<!-- Generator: Adobe Illustrator 21.0.2, SVG Export Plug-In . SVG Version: 6.00 Build 0)  -->
<svg version="1.1" id="Layer_1" xmlns="http://www.w3.org/2000/svg" xmlns:xlink="http://www.w3.org/1999/xlink" x="0px" y="0px"
	 viewBox="0 0 32 32" style="enable-background:new 0 0 32 32;" xml:space="preserve">
<style type="text/css">
	.st0{fill:#212121;}
	.st1{fill:none;stroke:#212121;stroke-width:0.75;stroke-miterlimit:10;}
</style>
<g>
	<path class="st0" d="M22.8,19.9L22.8,19.9c-2.5,0-4.5,2-4.5,4.5v0c0,2.5,2,4.5,4.5,4.5h0c2.5,0,4.5-2,4.5-4.5v0
		C27.3,22,25.3,19.9,22.8,19.9z M24.9,25.3L23.1,27c0,0-0.1,0.1-0.2,0.1c-0.1,0-0.1,0-0.2,0s-0.1,0-0.2,0c-0.1,0-0.1-0.1-0.2-0.1
		l-1.7-1.7c-0.2-0.2-0.2-0.5,0-0.8s0.5-0.2,0.8,0l0.8,0.8v-3.1c0-0.3,0.2-0.5,0.5-0.5s0.5,0.2,0.5,0.5v3.1l0.8-0.8
		c0.2-0.2,0.5-0.2,0.8,0C25.1,24.8,25.1,25.1,24.9,25.3z"/>
	<g>
		<g>
			<path class="st0" d="M8.8,7.2l0.7,0.4l0.3-0.3l0.7,0.4l1.4-0.1v0.7l-0.6,0.1l-0.1,0.3l0.5,0.6l0.1,0L12,8.5l0.4,0l0.1,0.4
				l0.2-0.1l0.4,0.9L12.6,10l-0.4,0.2l-0.4,0.5v0.2l-0.1,0l-0.1-0.3L11,10.8l-0.1,0.3l0.1,0.2l0.2-0.1l0.2,0l-0.1,0.3l0.2,0l0.1,0.3
				l0.1,0l0.1-0.2l0.7,0.1l0.5,0.4l0.1,0.3l0.6,0.3l-0.4,0.8l-0.4,0.1l-0.1,0.3l-0.8,0.6L11.9,15l0.3,0.3l-0.4-0.1l-0.1-0.4l0.4-1.7
				l-0.4-0.3l-0.2-0.7l0.2-0.3l-0.2,0l-0.3-0.3l-0.2-0.1l-0.5-0.2l-0.4-0.7l-0.3-0.5V9.4L9.5,8.7L8.9,8.4L8.8,7.2 M22,12.1l0,0.3
				l-0.3-0.1l0-0.2l-0.3,0L21,12.5l-0.4,0.1l0.1,0.5l0,0.1l0.1,0.1l0.6-0.1l0.2,0.1l0.1-0.1l0.1,0.2l0.3,0.1l0.2-0.1l0.1-0.7
				l-0.3-0.3L22,12.1z M20.5,11.8l0.3,0.1l0.1-0.4l-0.1-0.1l-0.4,0.3L20.5,11.8z M21.5,11.7l0.3,0.3l0.2,0L22,12l0.3,0.2l-0.1-0.2
				l-0.5-0.2L21.5,11.7z M22,9L22,9L22,9.4l-0.2,0.5l-0.3,0.2l0,0.2L22,9.9l0-0.3l0.2-0.2L22,9.4l0.1-0.3L22,9z M15.3,8.2v0.4
				l0.2-0.1l0.1-0.1l-0.3-0.5L15.2,8l0,0.1L15,8.3l0,0.2h0.2L15.3,8.2z M17.5,12.4l0,0.4l0.2,0.1l0.2-0.5l0-0.2L17.5,12.4z
				 M22.6,7.5l0.1,0.6l-0.3,0.3l-0.4,0l-0.3,0.3L22,8.8l-0.3,0.7l-0.2,0l-0.1,0.2l0.1,0.3L21.2,10l0-0.2l-0.1-0.2l-0.2,0.2l0.1,0.4
				l-0.2,0.4l-0.4,0l-0.1,0.2l0.2,0.3l-0.2,0.2L20,11l0,0.2l0.2,0.2l0.1,0.4l0.2,0.1l0.3,0.1L20.3,12L20,11.7l-0.2-0.3l0.3,0.2
				L20,11.3l0-0.4l-0.1,0l-0.2-0.4l-0.5,0.3v0.2L19,11.3l-0.2-0.5l-0.2-0.3l-0.6-0.1l-0.2-0.1l-0.1,0l0.1,0.3l0.2-0.1l0.3,0.2
				l-0.8,0.4l-0.4-0.8l-0.1,0l0.4,0.9l0.4-0.2l-0.1,0.4l-0.4,0.4l0.1,0.5l-0.2,0.2l-0.4,0.8l-0.4,0.1L16,12.5l0.1-0.4l-0.2-0.7
				l-0.7,0l-0.4-0.4l0.1-0.7l0.4-0.5L16,9.8l0,0.2l0.3,0.2l0.1-0.2l0.5,0.1l0.1-0.1l0.1-0.2l-0.3-0.1l-0.1-0.2l-0.1,0l-0.1,0.2
				l-0.1-0.2l0-0.2l-0.2-0.2l-0.1-0.1l0,0.2l0.2,0.2l-0.1,0.1L16,9.6l-0.1-0.1l-0.3,0.1l-0.2,0.3l-0.3,0l0-0.4l0.4,0l-0.1-0.2
				l-0.1-0.2L15.6,9l0.2-0.2l0.1,0l0-0.1l0.1-0.1L16,8.7l0.4,0l0.1-0.3l0.1,0l0-0.2l0.2-0.1l-0.1-0.1l-0.2,0.1L16.5,8l0,0l0,0l0-0.1
				l0.1-0.1l0.1-0.2l-0.1,0l-0.1,0.2l-0.1,0.2l0.1,0.1l-0.1,0.3l-0.2,0.1L16,8.3l-0.2,0.1l-0.1-0.1l0-0.3l0.2-0.1L16,7.5l0.4-0.2
				l0.9,0.2c1.1-0.1,3-0.3,3-0.3L22.6,7.5 M17.4,9.5l-0.5-0.3l-0.2,0.3l0.1,0.1l0.3,0l0.2,0.1L17.4,9.5z M17.9,9.9l0-0.3l-0.1-0.1
				l0.1,0V9.2l-0.3,0.2l0.1,0.3l0,0.2L17.9,9.9z M13.6,7.5l-0.3-0.1l-0.3,0.4l0.4,1.1l0.2,0.1l0-0.4l0.1-0.1l0-0.1l0.1-0.3l-0.1-0.2
				L13.6,7.5z"/>
		</g>
	</g>
	<path class="st1" d="M19.4,23.1H9.7c-0.6,0-1.1-0.5-1.1-1.1v-16C8.7,5.5,9.2,5,9.7,5h12c0.6,0,1.1,0.5,1.1,1.1v14.4"/>
	<g>
		<path class="st0" d="M13.4,19.8C13.2,20,12.9,20,12.5,20h-0.8v1.3H11v-3.6h1.5c0.4,0,0.6,0.1,0.9,0.3c0.2,0.2,0.3,0.5,0.3,0.9
			C13.7,19.3,13.6,19.6,13.4,19.8z M12.8,18.5c-0.1-0.1-0.2-0.1-0.4-0.1h-0.7v1.1h0.7c0.2,0,0.3,0,0.4-0.1c0.1-0.1,0.1-0.2,0.1-0.4
			S12.9,18.6,12.8,18.5z"/>
		<path class="st0" d="M14.3,17.7h0.8l1.4,2.5v-2.5h0.7v3.6h-0.8L15,18.8v2.6h-0.7V17.7z"/>
		<path class="st0" d="M20.4,18.9c-0.1-0.2-0.2-0.4-0.4-0.5c-0.1-0.1-0.3-0.1-0.4-0.1c-0.3,0-0.5,0.1-0.7,0.3
			c-0.2,0.2-0.3,0.5-0.3,1c0,0.4,0.1,0.8,0.3,0.9c0.2,0.2,0.4,0.3,0.7,0.3c0.3,0,0.5-0.1,0.6-0.2c0.2-0.1,0.3-0.3,0.3-0.6h-0.8v-0.6
			h1.5v1.9h-0.5l-0.1-0.5c-0.1,0.2-0.3,0.3-0.4,0.4c-0.2,0.1-0.4,0.2-0.7,0.2c-0.5,0-0.9-0.2-1.2-0.5c-0.3-0.3-0.5-0.8-0.5-1.4
			c0-0.6,0.2-1.1,0.5-1.4c0.3-0.4,0.7-0.5,1.3-0.5c0.5,0,0.8,0.1,1.1,0.3c0.3,0.2,0.4,0.5,0.5,0.9H20.4z"/>
	</g>
	<line class="st1" x1="8.7" y1="16.5" x2="22.8" y2="16.5"/>
</g>
</svg>
