<?xml version="1.0" encoding="utf-8"?>
<!-- Generator: Adobe Illustrator 21.0.2, SVG Export Plug-In . SVG Version: 6.00 Build 0)  -->
<svg version="1.1" id="Layer_1" xmlns="http://www.w3.org/2000/svg" xmlns:xlink="http://www.w3.org/1999/xlink" x="0px" y="0px"
	 viewBox="0 0 32 32" style="enable-background:new 0 0 32 32;" xml:space="preserve">
<style type="text/css">
	.st0{fill:#212121;}
</style>
<g>
	<path class="st0" d="M16.1,5.3c0,0,0,0.1,0,0.1c0,0,0,0,0,0c0,0,0.1,0.1,0.1,0.1c0,0,0,0,0.1,0.1c0,0,0,0,0.1,0c0,0,0,0,0,0
		c0,0,0,0,0,0c0,0,0,0,0,0c0,0,0,0,0,0c0,0,0,0,0,0.1c0,0,0.1,0.1,0.1,0.1l0,0c0,0,0,0,0,0c0,0,0,0,0.1,0c0.1,0,0.1,0,0.2,0.1
		c0,0,0,0,0,0C17,6,17,6,17,6.1c0,0,0,0.1,0.1,0.1c0,0,0,0.1,0.1,0.1c0,0.1,0.1,0.1,0.1,0.2l0,0.1c0,0.1-0.1,0.2-0.2,0.3
		c0,0,0,0,0,0c0,0,0,0,0,0.1C17,7,17,7,17,7l0,0c0,0,0,0,0,0.1c0,0,0,0.1,0,0.1c0,0.1,0,0.1,0.1,0.2c0,0,0,0,0,0c0,0,0,0,0,0
		c0,0,0,0,0,0c0,0,0,0,0,0c0,0,0,0,0,0c0,0,0,0,0,0c-0.1,0.1-0.1,0.1-0.1,0.2c0,0.1,0,0.1,0.1,0.2c0,0,0,0,0,0c0,0,0,0,0,0
		c0,0,0,0,0,0c0,0,0,0,0,0.1c0,0,0,0.1,0,0.1l0,0c0,0,0,0,0,0c0,0,0,0.1,0,0.1c0,0,0,0,0,0c0,0,0,0,0,0.1c0,0.1-0.1,0.1-0.1,0.2
		c0,0.1,0,0.2,0.1,0.3c0,0,0.1,0.1,0.1,0.2c0,0,0,0,0,0.1c0,0.1,0.1,0.2,0.1,0.2c0,0,0,0,0,0l0,0c0,0,0,0,0.1,0c0,0,0.1,0,0.1,0.1
		c0,0,0.1,0,0.1,0c0.1,0,0.1,0.1,0.2,0.1c0,0,0.1,0,0.1,0c0.1,0,0.1,0.1,0.1,0.2l0,0c0,0.1,0.1,0.2,0.2,0.3c0,0.1,0.1,0.1,0.2,0.2
		c0,0,0.1,0.1,0.1,0.1l0,0c0,0,0,0,0,0c0,0,0,0.1-0.1,0.1c0,0,0,0.1-0.1,0.1c0,0.1-0.1,0.2-0.1,0.3c0,0.1-0.1,0.2-0.1,0.3
		c0,0.1-0.1,0.2-0.1,0.3c0,0.1,0,0.1-0.1,0.2c0,0.1,0,0.1-0.1,0.2c0,0,0,0,0,0.1c0,0.1,0,0.1,0.1,0.2c0,0,0,0,0,0l0,0.1
		c0,0.1,0.1,0.1,0.1,0.2c0,0,0.1,0.1,0.1,0.1c0.1,0.1,0.2,0.2,0.2,0.3c0,0,0,0.1,0.1,0.1c0,0,0,0.1,0,0.1l0,0c0,0.1,0.1,0.2,0.1,0.3
		c0,0,0,0.1,0,0.1c0,0.1,0.1,0.1,0.1,0.2c0,0,0,0.1,0,0.1l0,0c0,0.1,0.1,0.2,0.1,0.3c0,0.1,0,0.1,0,0.2c0,0,0,0,0,0c0,0,0,0,0,0l0,0
		c-0.1,0-0.1,0.1-0.1,0.2c0,0.1,0,0.1,0,0.2l0,0c0,0,0,0,0,0c0,0,0,0,0,0.1c0,0,0,0,0,0.1c0,0,0,0.1,0,0.1l0,0c0,0,0,0,0,0.1
		c0,0,0,0.1,0,0.1c0,0,0,0,0,0c0,0-0.1,0.1-0.1,0.1c0,0.1,0.1,0.1,0.2,0.1l0,0c0.1,0,0.1,0,0.1,0l0,0c0,0,0,0,0,0.1c0,0,0,0,0,0
		c0,0,0,0,0,0c0,0,0,0,0,0.1c0,0,0,0,0,0l0,0c0,0-0.1,0.1-0.1,0.2c0,0.1,0,0.1,0,0.2c0,0,0,0,0,0c0,0,0,0,0.1,0.1l0,0l0,0
		c0,0,0.1,0,0.1,0l0,0c0,0,0.1,0,0.1,0c0,0,0.1,0,0.1,0c0,0.1,0,0.1,0,0.1c0,0,0,0,0,0c0,0,0,0,0,0c0,0,0,0,0,0c0,0-0.1,0.1-0.1,0.2
		c0,0,0,0.1,0,0.1c0,0,0,0.1,0,0.1c0,0.1,0,0.2,0.2,0.2c0,0,0,0,0.1,0c0,0,0,0,0,0c0,0,0,0,0,0c0,0,0,0,0,0c0,0,0.1,0.1,0.1,0.1
		c0,0,0.1,0,0.1,0.1c0,0.1,0,0.1,0,0.2c0,0,0,0,0,0.1c0,0.1,0,0.1-0.1,0.2c-0.1,0.1-0.1,0.1-0.1,0.3c0,0,0,0,0,0.1c0,0,0,0,0,0
		c0,0,0,0,0,0c0,0,0,0,0,0c0,0,0,0,0,0c-0.1,0-0.1,0.1-0.1,0.1c0,0.1,0.1,0.1,0.1,0.2l0,0c0,0,0.1,0.1,0.1,0.1c0,0,0.1,0,0.1,0.1
		l0,0c0,0,0.1,0,0.1,0.1c0,0,0,0,0,0c0,0,0,0.1,0.1,0.1c0,0,0.1,0,0.2,0.1c0,0,0.1,0,0.1,0c0,0,0.1,0.1,0.1,0.1c0,0,0,0,0,0
		c0,0,0,0,0,0c0.1,0,0.2,0.1,0.2,0.2l0,0c0,0,0.1,0,0.1,0.1c0,0,0,0,0,0c0,0,0,0.1,0,0.1c0,0,0.1,0.1,0.1,0.1c0,0,0,0,0,0
		c0,0,0,0,0,0c0,0,0.1,0.1,0.1,0.1c0,0,0,0,0.1,0.1l0,0c0,0,0,0,0.1,0.1c0,0,0,0.1,0,0.1c0,0,0,0,0,0c0,0-0.1,0.1-0.1,0.1l0,0
		c0,0,0,0,0,0c0,0,0,0.1-0.1,0.1c0,0.1,0,0.1,0,0.2c0,0,0,0.1,0,0.1c0,0.1,0,0.1,0,0.2c0,0,0,0.1-0.1,0.1l0,0
		c-0.1,0-0.1,0.1-0.1,0.2l0,0c0,0.1-0.1,0.1-0.1,0.1c-0.1,0-0.1,0.1-0.2,0.1l0,0c0,0,0,0,0,0.1c0,0,0,0.1,0,0.1c0,0,0,0.1,0,0.1
		c0,0.1-0.1,0.1-0.1,0.2c0,0,0,0,0,0.1c-0.1,0.1-0.1,0.2-0.1,0.3c0,0.1-0.1,0.1-0.1,0.2c0,0.1-0.1,0.1-0.1,0.2
		c0,0.1-0.1,0.2-0.2,0.3c0,0,0,0-0.1,0.1c0,0-0.1,0.1-0.1,0.2c0,0,0,0.1,0,0.1c0,0,0,0,0,0c0,0,0,0,0,0c-0.1,0.1-0.2,0.2-0.3,0.4
		l0,0c0,0,0,0.1-0.1,0.1l0,0c0,0-0.1,0.1-0.1,0.1c0,0,0,0.1-0.1,0.1c0,0,0,0,0,0.1c0,0,0,0.1,0,0.1c0,0,0,0,0,0.1c0,0,0,0-0.1,0l0,0
		c-0.1,0-0.1,0.1-0.2,0.2c0,0.1-0.1,0.1-0.1,0.2c0,0.1-0.1,0.1-0.1,0.2c-0.1,0-0.1,0.1-0.2,0.2c0,0,0,0,0,0c0,0,0,0,0,0
		c0,0,0,0-0.1,0c0,0,0,0,0,0c0,0,0,0-0.1,0c0,0,0,0.1,0,0.1c0,0,0,0-0.1,0c0,0-0.1,0-0.1,0c0,0,0,0,0,0c0,0,0,0,0,0c0,0-0.1,0-0.1,0
		c0,0,0,0,0,0.1c0,0,0,0,0,0c0,0,0,0,0,0c0,0-0.1-0.1-0.1-0.1c0,0,0,0,0,0c0,0,0,0-0.1,0.1c0,0,0,0,0,0c0,0,0,0,0,0c0,0,0,0,0,0
		c0,0,0,0,0,0c0,0,0,0,0,0c0,0,0,0-0.1,0c0,0,0,0,0,0c0,0,0,0,0,0c0,0,0,0,0,0.1c0,0,0,0-0.1,0c0,0,0,0,0,0c0,0-0.1,0-0.1,0.1
		c0,0,0,0,0,0c0,0,0,0,0,0c0,0,0,0-0.1,0c0,0,0-0.1,0-0.1l0,0c0-0.1,0.1-0.1,0-0.2c0,0,0,0-0.1,0c0,0,0,0,0,0
		c-0.1,0-0.2,0.2-0.2,0.2c0,0,0,0,0,0c0,0,0,0,0,0c0,0,0,0,0,0c0,0,0,0,0,0.1c0,0,0,0,0,0c0,0,0,0,0,0c0,0,0,0,0,0c0,0,0,0,0,0
		c0,0,0,0,0,0c0,0,0,0,0,0c0,0,0-0.1-0.1-0.1c0,0,0,0,0,0c0,0-0.1,0-0.1,0c0,0,0,0,0,0c0,0,0,0,0,0l0,0c0,0,0,0,0,0c0,0,0,0-0.1,0
		c0,0,0,0,0,0c0-0.1-0.1-0.1-0.1-0.1c0,0-0.1,0-0.1,0.1c0,0,0,0.1,0,0.1c0,0,0,0,0,0c0,0,0,0-0.1,0c0,0-0.1,0-0.1,0c0,0,0,0,0,0.1
		c0,0,0,0,0.1,0.1c0,0,0,0,0,0c0,0,0,0,0,0c0,0,0,0,0,0c0,0,0,0,0,0c0,0,0,0,0,0c0,0,0,0,0,0c0,0,0,0,0,0c0,0,0-0.1-0.1-0.1
		c0,0,0,0,0,0c0,0-0.1,0-0.1,0.1c0,0,0,0,0,0c0,0,0,0,0,0c0,0,0,0,0,0c-0.1,0-0.1,0.1-0.1,0.2c0,0,0,0,0,0c0,0,0,0,0,0c0,0,0,0,0,0
		c0,0,0,0,0,0c0,0,0,0,0,0c0,0-0.1,0-0.1,0c0,0,0,0-0.1,0c0,0-0.1,0.1-0.1,0.1c0,0,0,0,0,0c0,0,0,0,0,0c0,0,0,0,0,0c0,0,0,0-0.1,0
		c0,0,0,0-0.1,0c0,0-0.1,0-0.1,0c0,0,0,0,0,0.1c0,0,0,0,0,0c0,0,0,0,0,0c0,0,0,0,0,0c0,0,0,0,0,0l0,0c0,0,0,0,0,0c0,0,0,0-0.1,0
		c0,0,0,0,0,0c0,0,0,0,0,0c0,0,0,0,0,0c0,0,0,0,0,0c0,0,0,0,0,0c0,0,0,0,0,0c0,0,0,0,0,0c0,0,0,0,0,0c0,0,0,0,0,0c0,0,0,0,0,0
		c0,0,0,0-0.1,0c0,0,0,0,0,0c0,0,0,0,0,0c0,0,0,0,0,0c0,0,0,0-0.1,0c-0.1,0-0.1,0-0.1,0.1c0,0,0,0,0,0c0,0,0,0,0,0c0,0,0,0-0.1,0
		c0,0-0.1,0-0.1,0c0,0,0,0,0,0c0,0,0,0,0,0c0,0,0,0,0,0c0,0,0,0,0,0c0,0,0,0,0,0c0,0-0.1,0-0.1,0c0,0-0.1,0-0.1,0.1c0,0,0,0,0,0
		c0,0,0,0,0,0c0,0,0,0,0,0c0,0,0,0,0,0c0,0,0,0-0.1,0c0,0,0,0-0.1,0c0,0,0,0,0,0c0,0,0,0,0,0c0,0,0,0,0,0c0,0,0,0,0,0c0,0,0,0,0,0
		c0,0,0-0.1,0-0.1c0-0.1-0.1-0.1-0.1-0.1c-0.1,0-0.1,0.1-0.1,0.1c0,0,0,0,0,0c0,0,0,0,0,0c0,0,0,0-0.1,0c0,0,0,0,0,0c0,0,0,0,0,0
		c0,0-0.1,0-0.1,0c0,0,0,0-0.1,0l0,0l0,0c0,0,0,0,0,0c0,0,0,0,0-0.1c0,0,0,0-0.1,0c0,0,0,0,0,0c0,0,0,0,0,0c0,0,0,0,0,0c0,0,0,0,0,0
		c0,0,0,0,0,0l0,0c0,0,0,0,0,0c0,0,0,0,0-0.1l0,0c0,0,0-0.1,0-0.1c0,0,0,0,0,0c0,0,0,0,0,0c0,0,0-0.1,0-0.1c0,0,0,0-0.1,0
		c0,0-0.1,0-0.1,0c0,0-0.1,0.1-0.1,0.1c0,0,0,0,0,0c0,0-0.1,0-0.1,0c0,0,0,0,0,0c0,0,0,0,0,0c0,0,0,0-0.1,0c0,0-0.1,0-0.1,0
		c0,0,0,0,0,0l0,0c0,0,0,0,0,0l0,0c0,0,0.1-0.1,0.1-0.1c0,0,0,0,0-0.1c0,0,0,0,0,0c0,0,0,0,0,0c0,0,0,0,0,0c0,0,0,0-0.1,0
		c0,0,0,0,0,0c0,0,0,0-0.1,0c0,0,0,0,0,0c0,0,0,0,0,0c0,0,0,0,0,0c0,0,0,0,0,0c0,0,0,0,0,0c0,0,0-0.1-0.1-0.1l0,0l0,0c0,0,0,0-0.1,0
		c0,0,0,0,0,0c0,0,0,0,0,0c0,0,0,0,0,0c0,0,0,0,0-0.1c0,0,0,0,0,0c0,0,0-0.1,0-0.1c0,0,0,0-0.1,0c0,0,0,0,0,0c0,0,0,0,0,0
		c0,0,0,0,0,0c0,0,0-0.1,0-0.1c0,0,0,0-0.1,0c0,0,0,0,0,0l0,0c0,0,0,0-0.1,0c0,0,0,0,0,0c0,0-0.1,0-0.1,0c0,0,0,0,0,0.1c0,0,0,0,0,0
		c0,0,0,0-0.1,0c0,0,0,0,0,0c0,0,0,0,0,0c0,0,0,0,0,0c0,0,0,0,0-0.1c0,0,0,0,0,0c0,0,0-0.1,0-0.1c0,0,0-0.1,0-0.1c0,0,0,0,0-0.1
		c0,0,0,0,0,0c0,0,0,0,0,0c0,0,0,0,0,0c0,0,0,0,0,0c0,0,0,0,0,0c0,0,0,0,0,0c0,0,0,0,0-0.1c0,0,0,0,0,0c0,0,0.1,0,0.1-0.1
		c0,0,0,0,0,0c0,0,0.1,0,0.1,0c0,0,0-0.1,0-0.1c0,0-0.1-0.1-0.1-0.1c0,0,0,0,0,0c0,0-0.1,0-0.1,0c0,0,0,0-0.1,0c0,0,0,0,0,0
		c0,0,0,0,0,0l0,0c0,0,0,0,0,0c0,0,0,0,0,0c0,0,0,0,0,0c0,0,0,0,0,0c0,0,0.1,0,0.1-0.1c0,0,0,0,0,0c0,0,0,0,0-0.1c0,0,0,0,0,0
		c0,0,0,0,0,0c0,0,0,0,0,0c0,0,0,0,0,0c0,0,0.1,0,0.1-0.1c0,0,0,0,0,0c0,0,0,0,0,0c0,0,0,0,0-0.1c0,0,0,0-0.1-0.1c0,0,0-0.1,0-0.1
		c0,0,0,0,0,0c0,0,0,0,0,0c0,0,0-0.1,0-0.1c0,0,0,0,0,0c0,0,0,0,0-0.1c0,0,0,0,0,0c0,0,0,0,0-0.1c0,0,0,0,0,0c0,0,0,0,0,0
		c0,0,0,0,0-0.1c0,0,0,0,0,0c0,0,0,0,0,0c0,0,0,0,0.1,0.1c0,0,0,0,0,0c0,0,0,0,0,0c0,0,0-0.1,0-0.1c0,0,0-0.1-0.1-0.1c0,0,0,0-0.1,0
		c0,0,0,0,0,0c0,0,0,0,0,0c0,0,0,0,0-0.1c0,0,0,0,0,0c0,0,0,0,0-0.1c0,0,0,0,0,0c0,0,0-0.1-0.1-0.1c0,0,0,0,0,0c0.1-0.1,0-0.2,0-0.2
		c0,0,0,0,0-0.1c0,0,0-0.1,0-0.1c0,0,0,0,0,0c0,0,0,0,0-0.1c0,0,0,0,0,0c0,0,0,0,0,0c0,0,0,0,0,0c0,0,0,0,0,0c0,0,0,0,0,0
		c0,0,0,0,0-0.1c0,0,0,0,0,0c0-0.1,0-0.1,0-0.2c0,0,0,0,0,0c0,0,0,0,0-0.1c0,0,0-0.1,0-0.1c0,0,0,0,0,0c0,0,0,0,0,0c0,0,0,0,0,0
		c0,0,0,0,0-0.1c0,0,0,0,0,0c0,0,0-0.1,0-0.1c0,0,0,0,0,0c0,0,0-0.1,0-0.1c0,0,0,0-0.1,0c0,0,0-0.1,0-0.1c0,0,0,0,0,0
		c0,0,0-0.1,0-0.1c0,0,0,0,0,0c0,0,0,0,0-0.1l0,0c0,0,0-0.1-0.1-0.1c0,0,0,0,0,0c0,0,0,0,0,0c0,0,0,0,0,0c0,0,0.1,0,0.1-0.1
		c0,0,0-0.1,0-0.1l0,0c0,0,0.1,0,0.1-0.1c0,0,0,0,0,0c0,0,0,0,0,0c0,0,0,0,0.1,0c0,0,0,0,0,0c0,0,0,0,0,0c0,0,0,0,0,0
		c0,0,0-0.1,0-0.1c0,0,0,0,0-0.1l0,0c0,0,0-0.1,0-0.1c0,0,0,0,0,0c0,0,0,0,0,0c0,0,0,0,0,0c0,0,0,0,0,0c0,0,0.1,0.1,0.1,0.1
		c0,0,0,0,0.1,0c0,0,0,0,0-0.1c0-0.1-0.1-0.1-0.1-0.1c0,0,0,0,0-0.1c0,0,0,0,0,0c0,0,0,0,0,0c0,0,0,0,0-0.1c0,0,0,0,0,0c0,0,0,0,0,0
		c0,0,0,0,0,0c0,0,0,0,0,0c0,0,0,0,0,0c0,0,0,0,0,0c0,0,0,0.1,0.1,0.1c0,0,0.1,0,0.1,0c0,0,0,0.1,0.1,0.1c0,0,0.1,0,0.1,0
		c0,0,0,0,0.1,0c0,0,0.1,0,0.1-0.1c0,0,0,0,0,0c0,0,0,0,0-0.1c0,0,0,0,0,0c0,0,0,0,0,0c0,0,0,0,0,0c0.1,0,0.1-0.1,0.1-0.1l0,0
		c0,0,0,0,0,0c0,0,0.1,0,0.1,0c0,0,0-0.1,0-0.1c0-0.1,0-0.1,0-0.2c0,0,0,0,0,0c0,0,0,0,0.1,0c0,0,0,0,0-0.1c0,0,0,0,0,0
		c0.1,0,0-0.1,0-0.1c0,0,0,0,0,0c0,0,0,0,0,0c0,0,0,0,0,0c0,0,0,0,0,0c0,0,0-0.1,0-0.1c0,0,0,0,0,0c0,0,0,0,0,0c0,0,0,0,0,0
		c0,0,0,0,0,0c0,0,0,0.1,0,0.1c0,0,0,0,0.1,0c0,0,0.1,0,0.1,0c0,0,0.1-0.1,0.1-0.1l0,0c0,0,0,0,0,0c0,0,0-0.1,0-0.1c0,0,0,0,0,0
		c0,0,0,0,0,0c0,0,0,0,0,0c0,0,0,0,0,0c0,0,0.1,0,0.1-0.1c0,0,0-0.1,0-0.1c0,0,0,0,0,0c0,0,0,0,0,0c0,0,0.1,0,0.1-0.1c0,0,0,0,0,0
		c0,0,0,0,0,0c0,0,0,0,0,0c0,0,0,0,0,0c0,0,0,0,0,0c0,0,0,0,0.1,0c0,0,0,0,0,0c0,0,0,0,0,0c0.1,0,0.1,0,0.1-0.1c0,0,0,0,0,0l0,0
		c0,0,0-0.1,0-0.1c0,0,0,0,0,0c0,0,0,0,0,0c0,0,0,0,0.1,0c0,0,0,0,0.1,0c0,0,0.1-0.1,0.1-0.2c0,0,0,0,0,0c0,0,0-0.1,0-0.1
		c0,0,0,0,0,0c0,0,0,0,0,0c0,0,0,0,0,0c0,0,0,0,0,0c0,0,0,0,0,0c0,0,0.1,0,0.1-0.1c0,0,0,0,0,0c0,0,0,0,0,0c0,0,0.1,0,0.1-0.1
		c0,0,0,0,0-0.1c0,0,0,0,0,0c0,0,0,0,0,0c0,0,0,0,0-0.1c0,0,0,0,0,0c0,0,0,0,0,0c0,0,0.1,0,0.1-0.1c0,0,0,0,0,0c0,0,0,0,0,0
		c0,0,0.1,0,0.1,0c0,0,0,0,0-0.1c0,0,0,0,0.1,0c0,0,0,0,0-0.1c0,0,0,0,0,0c0,0,0-0.1,0-0.1l0,0c0,0,0,0,0-0.1c0,0,0,0,0,0
		c0,0,0,0,0,0c0,0,0.1,0,0.1-0.1c0,0,0,0,0,0c0,0,0,0,0,0c0,0,0-0.1,0-0.1c0,0,0,0,0,0c0,0,0,0,0,0c0,0,0.1,0,0.1,0c0,0,0,0,0,0
		c0,0,0,0,0,0c0,0,0-0.1,0-0.1c0,0,0,0,0,0l0,0l0,0l0,0c0,0,0.1,0,0.1,0c0,0,0,0,0,0c0,0,0,0,0,0c0,0,0.1,0,0.1,0c0,0,0,0,0,0
		c0,0,0,0,0,0c0,0,0,0,0,0c0,0,0,0,0,0c0,0,0,0,0.1,0c0,0,0,0,0,0l0,0c0,0,0.1,0,0.1,0c0,0,0-0.1,0-0.1c0,0,0,0,0,0c0,0,0,0,0-0.1
		c0,0,0,0,0,0c0,0,0.1,0,0.1-0.1c0,0,0-0.1,0-0.1c0,0,0,0,0,0c0-0.1,0-0.1,0-0.1c0,0,0,0,0,0c0,0,0,0,0,0c0,0,0,0,0,0c0,0,0,0,0,0
		c0,0-0.1,0-0.1,0c0,0,0,0,0,0c0,0,0,0,0,0c0,0,0,0,0,0c0,0,0-0.1,0-0.1c0,0,0,0,0-0.1c0,0,0,0,0,0c0,0,0,0,0-0.1c0,0,0,0,0-0.1
		c0,0,0,0,0,0c0,0,0,0,0,0c0,0,0,0,0,0c0,0,0-0.1,0-0.1c0-0.1,0-0.1-0.1-0.2c0,0-0.1,0-0.1-0.1c0,0,0,0,0,0c0,0,0,0,0,0l0,0
		c0-0.1-0.1-0.1-0.1-0.1c0,0,0,0,0,0c0,0,0,0,0,0c0,0,0,0,0,0c0,0,0,0,0,0c0,0,0,0,0,0c0,0,0,0-0.1,0c0,0,0,0,0,0
		c0-0.1,0-0.1-0.1-0.1c0,0,0,0,0,0c0,0,0,0,0,0c0,0,0-0.1,0-0.1c0,0-0.1-0.1-0.1-0.1c0,0,0,0,0,0c0,0-0.1,0-0.1,0.1c0,0,0,0-0.1,0
		c0,0,0,0,0,0c0,0,0,0,0,0c0,0,0,0,0,0c0,0,0,0,0,0c0,0,0,0,0,0c0,0,0,0,0-0.1c0,0,0,0,0,0c0,0,0,0,0,0l0,0c0,0,0-0.1,0-0.1
		c0,0,0,0,0,0c0,0,0,0,0,0c0,0,0,0,0-0.1c0,0-0.1-0.1-0.1-0.1c0,0,0,0,0,0c0,0,0,0,0,0c0,0,0,0,0-0.1c0,0,0,0-0.1,0c0,0,0,0,0,0
		c0,0,0,0,0,0c0,0,0,0,0,0c0,0,0-0.1-0.1-0.1c0,0,0,0,0,0c0,0,0,0,0,0c0,0,0,0,0,0c0,0,0-0.1,0-0.1c0,0,0,0,0,0l0,0c0,0,0-0.1,0-0.1
		c0,0,0,0,0,0c0,0,0,0,0,0c0,0,0-0.1,0-0.1c0,0,0,0,0-0.1c0,0,0-0.1,0-0.2c0,0,0,0,0,0c0,0,0-0.1,0-0.1c0,0,0,0,0,0c0,0,0,0,0-0.1
		c0,0,0,0,0-0.1c0,0,0,0,0,0c0,0,0,0,0,0c0,0,0,0,0.1-0.1c0-0.1,0-0.2,0-0.2c0,0,0,0,0-0.1c0,0,0-0.1,0-0.1c0,0,0-0.1-0.1-0.1
		c0,0,0,0,0,0c0,0,0,0,0-0.1c0,0,0,0,0,0c0,0,0,0,0,0c0,0,0-0.1,0-0.1l0,0c0,0-0.1-0.1-0.1-0.2c0,0,0,0,0,0c0,0,0,0,0.1,0
		c0.1,0,0.1-0.1,0.1-0.2c0,0,0,0,0-0.1c0,0,0,0,0,0c0,0,0,0,0-0.1c0,0,0,0,0,0c0,0,0-0.1,0-0.1c0,0,0,0-0.1,0c0,0,0,0,0,0
		c0,0,0,0,0,0c0,0,0,0-0.1,0c0,0,0,0,0,0l0,0c0,0,0,0,0,0c0,0,0,0,0,0c0,0,0,0,0,0c0,0,0,0,0-0.1c0,0,0,0,0,0c0,0,0.1,0,0.1-0.1
		c0,0,0-0.1,0-0.1l0,0l0,0c0-0.1,0-0.1,0-0.2c0,0,0-0.1,0-0.1c0,0,0,0,0,0c0,0,0,0,0,0c0,0,0-0.1,0-0.1c0,0,0,0,0,0
		c0,0,0.1,0,0.1-0.1c0-0.1,0-0.1,0-0.1c0,0,0,0,0,0c0,0,0,0,0-0.1c0,0,0,0,0,0c0,0,0-0.1,0-0.1c0,0,0,0-0.1,0c0,0,0,0,0,0
		c0,0,0,0,0,0c0,0,0,0,0,0l0,0c0,0,0-0.1,0-0.1c0,0-0.1,0-0.1,0c0,0,0,0-0.1,0c0,0,0,0,0,0c0,0,0,0,0,0l0,0c0,0,0-0.1,0-0.1
		c0,0-0.1-0.1-0.1-0.1c0,0,0,0,0,0c0,0,0,0,0,0c0,0,0,0-0.1-0.1c0,0,0,0,0,0l0,0c0,0,0-0.1-0.1-0.1l0,0c0,0,0-0.1-0.1-0.1
		c0,0,0,0,0,0c0,0-0.1,0-0.1,0c0,0,0,0,0,0c0,0,0,0-0.1,0c0,0,0,0,0,0c0,0,0,0,0,0c-0.1,0-0.1,0-0.2-0.1c0,0-0.1,0-0.1-0.1
		c0,0,0,0,0,0c0,0,0-0.1-0.1-0.2c0,0-0.1,0-0.1,0c0,0,0,0,0,0c0,0,0,0,0,0c0,0,0-0.1-0.1-0.1c0,0,0,0,0,0c0,0,0,0,0,0
		c0-0.1-0.1-0.2-0.2-0.2c0,0,0,0,0,0c0,0,0,0,0,0c0,0,0,0,0,0c0,0-0.1-0.1-0.2-0.1c0,0,0,0,0,0c0,0,0,0,0,0c0,0,0,0,0,0
		c0,0,0-0.1,0-0.1c0.1,0,0.1-0.1,0.1-0.1c0,0,0,0,0,0c0,0,0,0,0,0c0,0,0.1-0.1,0.1-0.2c0,0,0-0.1,0-0.1c0,0,0,0,0,0c0,0,0,0,0,0
		c0,0,0.1-0.1,0.2-0.1c0,0,0,0,0,0c0.1,0,0.2,0.1,0.3,0.2c0,0,0,0.1,0.1,0.1c0.1,0.1,0.1,0.2,0.2,0.3c0,0,0,0,0,0
		c0,0.1,0,0.1,0.1,0.2c0,0,0,0.1,0,0.1c0,0,0,0,0,0.1c0,0.1,0,0.2,0.1,0.3c0.1,0.1,0.2,0.1,0.3,0.1c0.1,0,0.2,0,0.2,0.1
		c0,0,0,0,0.1,0c0,0,0,0,0,0c0,0,0.1,0,0.2-0.1c0.1,0,0.1,0,0.2-0.1c0.1,0,0.1-0.1,0.1-0.2c0-0.1,0-0.1,0.1-0.1c0,0,0.1,0,0.1,0.1
		c0,0,0.1,0.1,0.1,0.1l0.1,0c0.1,0,0.2,0.1,0.3,0.1c0,0,0,0.1,0.1,0.1c0,0,0.1,0,0.1,0c0,0,0.1,0,0.1-0.1c0,0,0-0.1,0-0.1
		c0,0,0,0,0,0c0.1-0.1,0.1-0.1,0.1-0.2c0,0,0-0.1,0-0.1c0,0,0-0.1,0-0.1c0,0,0,0,0,0c0,0,0,0,0,0c0,0,0.1-0.1,0.1-0.1l0,0
		c0,0,0,0,0.1-0.1c0,0,0.1,0,0.1-0.1l0,0l0,0c0,0,0,0,0,0c0,0,0,0,0-0.1c0,0,0-0.1,0-0.2c0,0,0,0,0,0c0-0.1,0-0.1,0-0.1c0,0,0,0,0,0
		c0,0,0-0.1,0-0.2c0,0,0,0,0,0c0,0,0,0,0,0c0,0,0-0.1,0-0.1c0,0,0,0,0,0c0,0,0,0,0,0c0,0,0,0,0-0.1c0,0,0-0.1,0-0.1c0,0,0,0,0,0
		c0,0,0,0,0-0.1c0,0,0-0.1,0-0.1c0,0,0,0,0,0c0,0,0,0,0,0c0,0,0-0.1,0-0.1l0,0c0,0,0,0,0,0c0,0,0.1-0.1,0-0.1c0,0,0-0.1,0-0.1
		c0,0,0,0,0,0c0,0,0,0,0,0c0,0,0,0,0,0c0,0,0,0,0,0c0,0,0.1-0.1,0.1-0.1c0,0,0,0,0,0c0,0,0,0,0,0l0,0c0,0,0-0.1,0-0.1c0,0,0,0,0,0
		c0,0,0,0,0,0c0,0,0,0,0.1-0.1c0,0,0,0,0,0c0,0,0,0,0,0c0,0,0,0,0,0c0,0,0,0,0,0c0,0,0,0,0,0c0,0,0,0,0.1,0l0,0c0,0,0,0,0,0
		c0,0,0,0,0,0c0,0,0.1,0,0.1,0c0,0,0,0,0,0c0,0,0,0,0,0c0,0,0,0,0.1,0c0,0,0.1,0,0.1,0c0,0,0,0,0.1,0c0,0,0,0,0,0
		c0.1,0,0.1-0.1,0.1-0.2c0,0,0,0,0,0c0,0,0,0,0,0c0,0,0.1,0,0.1,0l0,0c0,0,0,0,0,0c0,0,0,0,0,0c0,0,0,0,0,0
		C16.1,5.4,16.1,5.4,16.1,5.3C16.1,5.3,16.1,5.3,16.1,5.3C16.1,5.3,16.1,5.3,16.1,5.3 M16,5.4L16,5.4L16,5.4 M13.1,10.1L13.1,10.1
		L13.1,10.1 M18.8,14.3L18.8,14.3L18.8,14.3 M18.8,15.5L18.8,15.5L18.8,15.5 M14.7,15.8L14.7,15.8L14.7,15.8 M14.6,16.4L14.6,16.4
		L14.6,16.4 M13.8,17.3L13.8,17.3L13.8,17.3 M13.6,17.7L13.6,17.7L13.6,17.7 M13.2,18.3L13.2,18.3L13.2,18.3 M13,18.5L13,18.5
		L13,18.5 M12.7,18.7L12.7,18.7L12.7,18.7 M12.5,19L12.5,19L12.5,19 M12.7,19L12.7,19L12.7,19 M12.2,19.3L12.2,19.3L12.2,19.3
		 M12.1,19.5L12.1,19.5L12.1,19.5 M12.1,19.8L12.1,19.8L12.1,19.8 M11.6,19.9L11.6,19.9L11.6,19.9 M11.8,19.9L11.8,19.9L11.8,19.9
		 M11.1,20.7L11.1,20.7L11.1,20.7 M11,21.1L11,21.1L11,21.1 M11.3,23L11.3,23L11.3,23 M11.3,24.4L11.3,24.4L11.3,24.4 M13,26L13,26
		L13,26 M17.9,25.3C17.9,25.3,17.9,25.3,17.9,25.3L17.9,25.3C17.9,25.3,17.9,25.3,17.9,25.3L17.9,25.3z M16.4,25.7L16.4,25.7
		L16.4,25.7z M16.4,25.7C16.4,25.7,16.4,25.7,16.4,25.7C16.4,25.7,16.4,25.7,16.4,25.7L16.4,25.7L16.4,25.7z"/>
</g>
</svg>
