<?xml version="1.0" encoding="utf-8"?>
<!-- Generator: Adobe Illustrator 21.0.2, SVG Export Plug-In . SVG Version: 6.00 Build 0)  -->
<svg version="1.1" id="Layer_1" xmlns="http://www.w3.org/2000/svg" xmlns:xlink="http://www.w3.org/1999/xlink" x="0px" y="0px"
	 viewBox="0 0 14.9 18.9" style="enable-background:new 0 0 14.9 18.9;" xml:space="preserve">
<style type="text/css">
	.st0{fill:none;}
	.st1{fill:#FFFFFF;}
</style>
<path class="st0" d="M-406.2-402.7h612v792h-612V-402.7z"/>
<path class="st0" d="M-406.2-402.7h612v792h-612V-402.7z"/>
<path class="st0" d="M-407.2-402.7h612v792h-612V-402.7z"/>
<path class="st0" d="M-407.2-402.7h612v792h-612V-402.7z"/>
<path class="st0" d="M-407.2-402.7h612v792h-612V-402.7z"/>
<path class="st1" d="M13.9,0H1C0.4,0,0,0.4,0,1v16.9c0,0.6,0.4,1,1,1h12.9c0.6,0,1-0.4,1-1V1C14.9,0.4,14.5,0,13.9,0z M7.1,14.2H2.8
	c-0.3,0-0.5-0.2-0.5-0.5s0.2-0.5,0.5-0.5h4.3c0.3,0,0.5,0.2,0.5,0.5S7.4,14.2,7.1,14.2z M12.1,10H2.8c-0.3,0-0.5-0.2-0.5-0.5
	S2.5,9,2.8,9h9.3c0.3,0,0.5,0.2,0.5,0.5S12.4,10,12.1,10z M12.1,5.8H2.8c-0.3,0-0.5-0.2-0.5-0.5s0.2-0.5,0.5-0.5h9.3
	c0.3,0,0.5,0.2,0.5,0.5S12.4,5.8,12.1,5.8z"/>
</svg>
