<?xml version="1.0" encoding="utf-8"?>
<!-- Generator: Adobe Illustrator 21.0.2, SVG Export Plug-In . SVG Version: 6.00 Build 0)  -->
<svg version="1.1" id="Layer_1" xmlns="http://www.w3.org/2000/svg" xmlns:xlink="http://www.w3.org/1999/xlink" x="0px" y="0px"
	 viewBox="0 0 11.9 14.9" style="enable-background:new 0 0 11.9 14.9;" xml:space="preserve">
<style type="text/css">
	.st0{fill:none;}
	.st1{stroke:#000000;stroke-width:0.75;stroke-miterlimit:10;}
</style>
<path class="st0" d="M-406.2-402.7h612v792h-612V-402.7z"/>
<path class="st0" d="M-406.2-402.7h612v792h-612V-402.7z"/>
<path class="st0" d="M-407.2-402.7h612v792h-612V-402.7z"/>
<path class="st0" d="M-407.2-402.7h612v792h-612V-402.7z"/>
<path class="st0" d="M-407.2-402.7h612v792h-612V-402.7z"/>
<g>
	<path d="M10.9,1v12.9H1V1H10.9 M10.9,0H1C0.4,0,0,0.4,0,1v12.9c0,0.6,0.4,1,1,1h9.9c0.6,0,1-0.4,1-1V1C11.9,0.4,11.5,0,10.9,0
		L10.9,0z"/>
</g>
<path class="st1" d="M5.1,11.2H3.8c-0.3,0-0.5-0.2-0.5-0.5s0.2-0.5,0.5-0.5h1.3c0.3,0,0.5,0.2,0.5,0.5S5.4,11.2,5.1,11.2z"/>
<path class="st1" d="M8.1,8H3.8C3.5,8,3.3,7.8,3.3,7.5S3.5,7,3.8,7h4.3c0.3,0,0.5,0.2,0.5,0.5S8.4,8,8.1,8z"/>
<path class="st1" d="M8.1,4.8H3.8c-0.3,0-0.5-0.2-0.5-0.5s0.2-0.5,0.5-0.5h4.3c0.3,0,0.5,0.2,0.5,0.5S8.4,4.8,8.1,4.8z"/>
</svg>
